<svg xmlns="http://www.w3.org/2000/svg" viewBox="0 0 360 236" width="360" height="236" role="img"><defs><linearGradient id="sk" x1="0" y1="0" x2="0" y2="1"><stop offset="0" stop-color="#f6e6de"/><stop offset="1" stop-color="#eed6c8"/></linearGradient></defs><rect width="360" height="236" fill="#faf7f3"/><text x="180" y="20" text-anchor="middle" font-family="Inter, Arial, sans-serif" font-size="12" font-weight="600" fill="#3c2a1d">Lower Pole Skin</text><path d="M32 38 q76 -11 152 0 l7 150 q-84 12 -166 0 Z" fill="url(#sk)" stroke="#e0cbba" stroke-width="1.5"/><line x1="108" y1="44" x2="108" y2="184" stroke="#d7bda9" stroke-width="1.3" stroke-dasharray="5 5"/><ellipse cx="72" cy="116" rx="33" ry="38" fill="#fff" fill-opacity="0.6" stroke="#d7bda9" stroke-width="1.3"/><circle cx="72" cy="116" r="4.5" fill="#d3a08c"/><ellipse cx="144" cy="116" rx="33" ry="38" fill="#fff" fill-opacity="0.6" stroke="#d7bda9" stroke-width="1.3"/><circle cx="144" cy="116" r="4.5" fill="#d3a08c"/><path d="M114 152 q30 16 60 0" fill="none" stroke="#f0cdbf" stroke-width="10" stroke-linecap="round" opacity="0.5"/><path d="M114 152 q30 16 60 0" fill="none" stroke="#c17e6a" stroke-width="4.5" stroke-linecap="round"/><g stroke="#a1604c" stroke-width="2.2" stroke-linecap="round"><line x1="144" y1="116" x2="144" y2="154"/><line x1="137" y1="116" x2="151" y2="116"/><line x1="137" y1="154" x2="151" y2="154"/></g><text x="144" y="176" text-anchor="middle" font-family="Inter, Arial, sans-serif" font-size="8" font-weight="600" fill="#a1604c">nipple to fold</text><rect x="210" y="52" width="132" height="118" rx="10" fill="#ffffff" stroke="#e9ddd0" stroke-width="1.4"/><text x="276" y="72" text-anchor="middle" font-family="Inter, Arial, sans-serif" font-size="10" fill="#3c2a1d">Measured stretched,</text><text x="276" y="86" text-anchor="middle" font-family="Inter, Arial, sans-serif" font-size="10" fill="#3c2a1d">not at rest</text><line x1="238" y1="94" x2="238" y2="162" stroke="#d7bda9" stroke-width="3"/><path d="M238 100 C278.5 100, 292 117.92, 292 128 C292 144.8, 271.48 156, 238 156 Z" fill="#f6e6de" stroke="#c17e6a" stroke-width="1.8"/><circle cx="292" cy="128" r="3.4" fill="#d3a08c"/><g stroke="#a1604c" stroke-width="2.2" stroke-linecap="round"><line x1="306" y1="128" x2="306" y2="156"/><line x1="299" y1="128" x2="313" y2="128"/><line x1="299" y1="156" x2="313" y2="156"/></g><text x="276" y="162" text-anchor="middle" font-family="Inter, Arial, sans-serif" font-size="9" fill="#8a7566">Usually 4 to 9 cm</text><text x="180" y="226" text-anchor="middle" font-family="Inter, Arial, sans-serif" font-size="10" fill="#3c2a1d">Nipple to inframammary fold, tissue on stretch.</text></svg>